<?xml version="1.0" encoding="UTF-8"?><svg id="Layer_1" xmlns="http://www.w3.org/2000/svg" viewBox="0 0 160.05 101.58"><defs><style>.cls-1{fill:#493323;}.cls-2{fill:#e6b325;}</style></defs><g><rect class="cls-1" x="-11.21" y="54.46" width="100.32" height="9.86" transform="translate(-30.58 44.94) rotate(-45)"/><rect class="cls-1" x="75.1" y="13.39" width="9.86" height="9.86" transform="translate(10.49 61.96) rotate(-45)"/><rect class="cls-1" x="83.73" y="3.17" width="13.04" height="9.86" transform="translate(20.71 66.18) rotate(-45)"/><rect class="cls-1" x="-11.21" y="54.46" width="100.32" height="9.86" transform="translate(-30.58 44.94) rotate(-45)"/><rect class="cls-1" x="75.1" y="13.39" width="9.86" height="9.86" transform="translate(10.49 61.96) rotate(-45)"/><rect class="cls-1" x="83.73" y="3.17" width="13.04" height="9.86" transform="translate(20.71 66.18) rotate(-45)"/><rect class="cls-1" x="64.88" y="1.58" width="9.86" height="13.04" transform="translate(14.72 51.73) rotate(-45)"/><rect class="cls-1" x="75.1" y="13.39" width="9.86" height="9.86" transform="translate(10.49 61.96) rotate(-45)"/><rect class="cls-1" x="116.17" y="9.22" width="9.86" height="100.32" transform="translate(-6.52 103.02) rotate(-45)"/><rect class="cls-1" x="64.88" y="1.58" width="9.86" height="13.04" transform="translate(14.72 51.73) rotate(-45)"/><rect class="cls-1" x="75.1" y="13.39" width="9.86" height="9.86" transform="translate(10.49 61.96) rotate(-45)"/><rect class="cls-1" x="116.17" y="9.22" width="9.86" height="100.32" transform="translate(-6.52 103.02) rotate(-45)"/></g><g><path class="cls-2" d="M40.37,91.18c-.22-.57-.53-1.07-.9-1.52-.37-.45-.8-.85-1.27-1.21-.47-.36-.95-.68-1.43-.99-.4-.24-.88-.52-1.42-.84-.55-.33-.97-.6-1.28-.84-.37-.29-.67-.6-.9-.92-.22-.32-.34-.68-.35-1.08,0-.88,.18-1.43,.53-1.66s.84-.34,1.48-.34c.54,0,.96,.15,1.24,.45,.28,.31,.42,.85,.42,1.64,0,.38,.21,.73,.63,1.06,.42,.33,.85,.49,1.29,.49,.59,0,1.08-.18,1.49-.53s.6-.81,.6-1.37c0-.19,0-.45-.04-.76s-.1-.65-.21-1.02c-.11-.37-.29-.74-.52-1.11-.24-.37-.57-.71-.97-1s-.92-.54-1.53-.73c-.63-.19-1.38-.29-2.24-.29h-.37c-.96,0-1.82,.09-2.56,.25-.75,.17-1.38,.45-1.88,.85-.52,.4-.91,.94-1.17,1.62-.26,.68-.4,1.53-.41,2.55v.23c.02,.8,.21,1.51,.59,2.11,.37,.6,.86,1.15,1.45,1.62,.6,.48,1.23,.92,1.89,1.35,.64,.41,1.26,.82,1.85,1.24,.59,.43,1.08,.89,1.47,1.4,.38,.51,.58,1.09,.58,1.75,0,.76-.18,1.3-.53,1.59s-.84,.45-1.46,.48c-.57,0-1.02-.14-1.32-.4-.31-.26-.47-.76-.49-1.47-.02-.62-.26-1.1-.72-1.42-.47-.33-.97-.49-1.52-.49s-1.04,.16-1.44,.49-.59,.81-.59,1.46c0,.33,.03,.68,.11,1.04,.08,.37,.2,.75,.37,1.12,.17,.38,.41,.75,.7,1.11,.29,.35,.65,.67,1.09,.94s.96,.49,1.58,.65c.64,.16,1.35,.25,2.14,.25h.14c.42-.02,.87-.05,1.35-.12,.47-.06,.94-.18,1.41-.34,.44-.15,.88-.37,1.32-.66,.86-.56,1.48-1.4,1.86-2.54,.19-.6,.29-1.29,.29-2.05v-.11c-.02-.72-.14-1.36-.37-1.93Z"/><path class="cls-2" d="M40.37,91.18c-.22-.57-.53-1.07-.9-1.52-.37-.45-.8-.85-1.27-1.21-.47-.36-.95-.68-1.43-.99-.4-.24-.88-.52-1.42-.84-.55-.33-.97-.6-1.28-.84-.37-.29-.67-.6-.9-.92-.22-.32-.34-.68-.35-1.08,0-.88,.18-1.43,.53-1.66s.84-.34,1.48-.34c.54,0,.96,.15,1.24,.45,.28,.31,.42,.85,.42,1.64,0,.38,.21,.73,.63,1.06,.42,.33,.85,.49,1.29,.49,.59,0,1.08-.18,1.49-.53s.6-.81,.6-1.37c0-.19,0-.45-.04-.76s-.1-.65-.21-1.02c-.11-.37-.29-.74-.52-1.11-.24-.37-.57-.71-.97-1s-.92-.54-1.53-.73c-.63-.19-1.38-.29-2.24-.29h-.37c-.96,0-1.82,.09-2.56,.25-.75,.17-1.38,.45-1.88,.85-.52,.4-.91,.94-1.17,1.62-.26,.68-.4,1.53-.41,2.55v.23c.02,.8,.21,1.51,.59,2.11,.37,.6,.86,1.15,1.45,1.62,.6,.48,1.23,.92,1.89,1.35,.64,.41,1.26,.82,1.85,1.24,.59,.43,1.08,.89,1.47,1.4,.38,.51,.58,1.09,.58,1.75,0,.76-.18,1.3-.53,1.59s-.84,.45-1.46,.48c-.57,0-1.02-.14-1.32-.4-.31-.26-.47-.76-.49-1.47-.02-.62-.26-1.1-.72-1.42-.47-.33-.97-.49-1.52-.49s-1.04,.16-1.44,.49-.59,.81-.59,1.46c0,.33,.03,.68,.11,1.04,.08,.37,.2,.75,.37,1.12,.17,.38,.41,.75,.7,1.11,.29,.35,.65,.67,1.09,.94s.96,.49,1.58,.65c.64,.16,1.35,.25,2.14,.25h.14c.42-.02,.87-.05,1.35-.12,.47-.06,.94-.18,1.41-.34,.44-.15,.88-.37,1.32-.66,.86-.56,1.48-1.4,1.86-2.54,.19-.6,.29-1.29,.29-2.05v-.11c-.02-.72-.14-1.36-.37-1.93Z"/><path class="cls-2" d="M56.41,82.02v13.49c0,.6-.05,1.15-.14,1.66s-.3,.9-.61,1.19c-.31,.3-.79,.45-1.42,.45s-1.12-.15-1.43-.45-.51-.7-.6-1.19c-.1-.5-.14-1.05-.14-1.65v-4.77h-3.93v4.77c0,.6-.05,1.15-.14,1.66s-.3,.9-.61,1.19c-.31,.3-.79,.45-1.42,.45s-1.12-.15-1.43-.45-.51-.7-.6-1.19c-.1-.5-.14-1.05-.14-1.65v-13.49c0-.59,.05-1.14,.14-1.64s.29-.91,.6-1.21,.79-.45,1.43-.45,1.11,.14,1.42,.45c.31,.3,.52,.7,.61,1.2,.1,.49,.14,1.04,.14,1.65v4.5h3.93v-4.5c0-.59,.05-1.14,.14-1.64s.29-.91,.6-1.21,.79-.45,1.43-.45,1.11,.14,1.42,.45c.31,.3,.52,.7,.61,1.2,.1,.49,.14,1.04,.14,1.65Z"/><path class="cls-2" d="M56.27,80.38c-.1-.5-.3-.9-.61-1.2-.31-.3-.79-.45-1.42-.45s-1.12,.14-1.43,.45-.51,.71-.6,1.21-.14,1.05-.14,1.64v4.5h-3.93v-4.5c0-.6-.05-1.15-.14-1.65-.1-.5-.3-.9-.61-1.2-.31-.3-.79-.45-1.42-.45s-1.12,.14-1.43,.45-.51,.71-.6,1.21-.14,1.05-.14,1.64v13.49c0,.6,.05,1.15,.14,1.65,.1,.49,.29,.89,.6,1.19s.79,.45,1.43,.45,1.11-.14,1.42-.45c.31-.29,.52-.69,.61-1.19s.14-1.06,.14-1.66v-4.77h3.93v4.77c0,.6,.05,1.15,.14,1.65,.1,.49,.29,.89,.6,1.19s.79,.45,1.43,.45,1.11-.14,1.42-.45c.31-.29,.52-.69,.61-1.19s.14-1.06,.14-1.66v-13.49c0-.6-.05-1.15-.14-1.65Z"/><path class="cls-2" d="M71.01,95.39c.31,.29,.46,.73,.46,1.36s-.15,1.09-.47,1.38c-.32,.29-.72,.49-1.23,.57-.5,.08-1.03,.12-1.6,.12h-5.63c-.68,0-1.17-.14-1.47-.45s-.49-.69-.57-1.19c-.07-.5-.11-1.06-.11-1.66v-13.49c0-.61,.04-1.16,.11-1.66,.08-.49,.27-.89,.57-1.19,.3-.29,.8-.44,1.47-.44h5.63c.57,0,1.11,.04,1.62,.12,.5,.08,.91,.26,1.22,.55,.31,.29,.46,.74,.46,1.36s-.15,1.08-.46,1.37c-.31,.29-.72,.47-1.22,.55-.5,.08-1.04,.12-1.62,.12h-3.41v3.91h1.81c.57,0,1.09,.03,1.58,.1,.49,.07,.88,.25,1.19,.52,.3,.27,.45,.72,.45,1.33s-.15,1.05-.45,1.33c-.3,.27-.7,.45-1.19,.52-.49,.07-1.01,.1-1.58,.1h-1.81v4.13h3.41c.57,0,1.11,.04,1.62,.12,.5,.07,.91,.25,1.22,.53Z"/><path class="cls-2" d="M69.79,94.85c-.5-.08-1.04-.12-1.62-.12h-3.41v-4.13h1.81c.57,0,1.09-.03,1.58-.1,.49-.07,.88-.25,1.19-.52,.3-.28,.45-.72,.45-1.33s-.15-1.06-.45-1.33c-.3-.27-.7-.45-1.19-.52-.49-.07-1.01-.1-1.58-.1h-1.81v-3.91h3.41c.57,0,1.11-.04,1.62-.12,.5-.08,.91-.26,1.22-.55,.31-.29,.46-.74,.46-1.37s-.15-1.07-.46-1.36c-.31-.29-.72-.47-1.22-.55-.5-.08-1.04-.12-1.62-.12h-5.63c-.68,0-1.17,.14-1.47,.44-.29,.3-.49,.7-.57,1.19-.07,.5-.11,1.05-.11,1.66v13.49c0,.6,.04,1.16,.11,1.66,.08,.49,.27,.89,.57,1.19s.8,.45,1.47,.45h5.63c.57,0,1.1-.04,1.6-.12,.5-.08,.91-.27,1.23-.57,.32-.29,.47-.75,.47-1.38s-.15-1.07-.46-1.36c-.31-.28-.72-.46-1.22-.53Z"/><path class="cls-2" d="M85.54,96.68c0,.62-.14,1.08-.44,1.38s-.68,.5-1.15,.6-1.01,.14-1.59,.14h-4.08c-1.03,0-1.81-.11-2.36-.34-.55-.23-.82-.82-.82-1.78v-14.66c0-.59,.05-1.14,.14-1.64s.29-.91,.6-1.21,.79-.45,1.43-.45c.68,0,1.19,.14,1.51,.44,.32,.29,.53,.68,.61,1.18,.1,.5,.14,1.06,.14,1.68v12.57h2.82c.57,0,1.1,.05,1.58,.14s.87,.29,1.16,.59,.44,.75,.44,1.36Z"/><path class="cls-2" d="M85.1,95.32c-.29-.29-.68-.49-1.16-.59s-1.01-.14-1.58-.14h-2.82v-12.57c0-.62-.04-1.18-.14-1.68-.09-.49-.29-.89-.61-1.18-.33-.29-.83-.44-1.51-.44-.64,0-1.12,.14-1.43,.45s-.51,.71-.6,1.21-.14,1.05-.14,1.64v14.66c0,.96,.27,1.55,.82,1.78,.55,.23,1.34,.34,2.36,.34h4.08c.58,0,1.11-.05,1.59-.14s.86-.29,1.15-.6,.44-.76,.44-1.38-.14-1.07-.44-1.36Z"/><path class="cls-2" d="M98.35,80.76c0,.61-.16,1.07-.46,1.35-.31,.29-.71,.47-1.21,.56-.49,.09-1.03,.13-1.6,.13h-1.46v12.74c0,.61-.04,1.17-.12,1.66-.07,.5-.26,.89-.57,1.18s-.8,.43-1.5,.43-1.19-.14-1.5-.43c-.3-.29-.49-.68-.57-1.18-.07-.49-.11-1.05-.11-1.66v-12.74h-1.46c-.57,0-1.1-.04-1.6-.13s-.91-.27-1.21-.56c-.31-.29-.46-.74-.46-1.35s.15-1.07,.46-1.36c.3-.29,.71-.47,1.21-.55,.5-.08,1.03-.12,1.6-.12h7.29c.57,0,1.11,.04,1.6,.12,.5,.08,.9,.26,1.21,.55,.3,.29,.46,.74,.46,1.36Z"/><path class="cls-2" d="M97.89,79.4c-.31-.29-.71-.47-1.21-.55-.49-.08-1.03-.12-1.6-.12h-7.29c-.57,0-1.1,.04-1.6,.12-.5,.08-.91,.26-1.21,.55-.31,.29-.46,.74-.46,1.36s.15,1.07,.46,1.35c.3,.29,.71,.47,1.21,.56s1.03,.13,1.6,.13h1.46v12.74c0,.61,.04,1.17,.11,1.66,.08,.5,.27,.89,.57,1.18,.31,.29,.8,.43,1.5,.43s1.19-.14,1.5-.43,.49-.68,.57-1.18c.08-.49,.12-1.05,.12-1.66v-12.74h1.46c.57,0,1.11-.04,1.6-.13,.5-.09,.9-.27,1.21-.56,.3-.29,.46-.74,.46-1.35s-.16-1.07-.46-1.36Z"/><path class="cls-2" d="M101.95,99.87c.13,.12,.2,.29,.22,.51-.08,0-.16,0-.23-.02-.54-.06-1.01-.22-1.41-.47l.02-.02c.16-.14,.4-.22,.7-.22,.26,0,.47,.06,.61,.15h0s.06,.05,.09,.07Z"/><path class="cls-2" d="M111.55,80.76c0,.63-.16,1.08-.47,1.37-.31,.29-.72,.47-1.22,.55-.5,.08-1.04,.12-1.62,.12h-3.41v3.91h1.81c.57,0,1.09,.03,1.58,.1,.49,.07,.88,.25,1.18,.52,.3,.27,.45,.72,.45,1.33s-.15,1.05-.45,1.33c-.29,.27-.69,.45-1.18,.52-.49,.07-1.02,.1-1.58,.1h-1.81v3.7c-.12,.02-.24,.05-.36,.08-.29,.08-.59,.19-.89,.36-.35,.19-.66,.45-.92,.78-.25,.31-.45,.68-.6,1.11-.14,.42-.21,.9-.21,1.43v.04c-.18-.03-.37-.06-.59-.06-.12,0-.23,0-.33,.02-.17-.25-.28-.55-.33-.89-.08-.5-.12-1.06-.12-1.66v-13.49c0-.61,.04-1.16,.12-1.66,.07-.49,.26-.89,.57-1.19,.3-.29,.79-.44,1.47-.44h5.62c.57,0,1.11,.04,1.62,.12,.5,.08,.91,.26,1.22,.55,.31,.29,.47,.74,.47,1.36Z"/><path class="cls-2" d="M108.26,99.7c0,.25-.04,.46-.11,.64,0,.02-.02,.04-.02,.06h-4.48s0-.02-.02-.02c-.14-.27-.2-.59-.2-.97v-1.34c0-.36,.04-.66,.13-.92,.09-.25,.2-.46,.33-.63,.14-.17,.29-.3,.46-.4,.18-.09,.34-.16,.52-.2,.18-.05,.34-.08,.5-.09,.16-.02,.29-.02,.41-.02,.33,0,.63,.02,.88,.08,.25,.06,.47,.14,.66,.23,.18,.1,.33,.21,.45,.33,.11,.12,.21,.25,.28,.4,.06,.14,.11,.27,.14,.41,.03,.14,.04,.26,.04,.38,0,.19-.04,.36-.14,.5-.09,.14-.29,.21-.6,.21-.02,0-.05,0-.07,0-.13,0-.27-.02-.41-.03-.15-.02-.28-.07-.39-.15-.1-.07-.16-.19-.16-.36,0-.21-.04-.39-.12-.52-.07-.13-.27-.19-.57-.19-.26,0-.42,.07-.5,.21-.08,.14-.12,.29-.12,.45v1.77c0,.11,.02,.23,.05,.36,.03,.14,.1,.25,.18,.33,.09,.1,.21,.14,.39,.14,.3,0,.5-.06,.58-.19,.08-.13,.12-.31,.12-.54,0-.16,.07-.29,.21-.39,.14-.1,.39-.15,.76-.15h.06c.3,0,.51,.07,.6,.18,.1,.11,.15,.25,.15,.4Z"/><path class="cls-2" d="M113.14,96.75c0,.09,0,.18,0,.26-.05,.96-.37,1.72-.96,2.27v-1.56c0-.11-.03-.21-.08-.32-.05-.07-.11-.14-.2-.21-.08-.06-.21-.1-.37-.1-.17,0-.29,.03-.38,.1-.09,.07-.16,.14-.2,.21-.05,.09-.07,.2-.08,.32v2.07c0,.1,.02,.18,.06,.25-.26,.1-.53,.17-.83,.21-.1,.02-.19,.03-.29,.04-.17,.02-.34,.05-.52,.06-.02-.02-.02-.06-.04-.09-.1-.24-.14-.54-.14-.89v-1.42c0-.35,.05-.64,.14-.89,.1-.24,.21-.45,.37-.6h0c.15-.18,.31-.29,.5-.38,.18-.1,.36-.16,.54-.21,.18-.05,.34-.08,.5-.09,.07,0,.14,0,.2,0,.06,0,.11,0,.16,0,.09,0,.21,0,.36,.02,.16,0,.32,.04,.49,.09,.18,.05,.35,.11,.53,.21,.06,.02,.11,.06,.17,.1,.02,0,.02,0,.04,.02,.02,.17,.03,.35,.03,.53Z"/><path class="cls-2" d="M111.08,79.4c-.31-.29-.72-.47-1.22-.55-.5-.08-1.04-.12-1.62-.12h-5.62c-.68,0-1.17,.14-1.47,.44-.3,.3-.49,.7-.57,1.19-.08,.5-.12,1.05-.12,1.66v13.49c0,.6,.04,1.16,.12,1.66,.05,.34,.16,.64,.33,.89,.1,0,.21-.02,.33-.02,.21,0,.41,.02,.59,.06v-.04c0-.53,.07-1.01,.21-1.43,.15-.43,.35-.8,.6-1.11,.26-.33,.57-.59,.92-.78,.3-.17,.6-.28,.89-.36,.12-.03,.24-.06,.36-.08v-3.7h1.81c.57,0,1.09-.03,1.58-.1,.49-.07,.88-.25,1.18-.52,.3-.28,.45-.72,.45-1.33s-.15-1.06-.45-1.33c-.29-.27-.69-.45-1.18-.52-.49-.07-1.02-.1-1.58-.1h-1.81v-3.91h3.41c.57,0,1.11-.04,1.62-.12,.5-.08,.91-.26,1.22-.55,.31-.29,.47-.74,.47-1.37s-.16-1.07-.47-1.36Zm.29,16.39c-.06,0-.13,0-.2,0-.16,0-.33,.04-.5,.09-.18,.05-.37,.11-.54,.21-.19,.09-.35,.21-.5,.37h0c-.15,.17-.27,.37-.37,.61-.1,.25-.14,.54-.14,.89v.81c.18-.02,.35-.03,.52-.06,.08,0,.15-.02,.22-.02,.4-.06,.74-.19,1.02-.4v-.57c0-.12,.03-.23,.08-.32,.04-.07,.11-.14,.2-.21,.09-.06,.21-.1,.38-.1,.02-.1,.02-.22,.02-.34,0-.39-.06-.71-.18-.96Zm-3.16,1.48c-.03-.14-.08-.27-.14-.41-.07-.14-.17-.28-.28-.4-.12-.12-.27-.23-.45-.33-.19-.1-.41-.17-.66-.23-.25-.06-.55-.08-.88-.08-.12,0-.25,0-.41,.02-.16,0-.33,.04-.5,.09-.18,.04-.34,.11-.52,.2-.17,.1-.33,.23-.46,.4-.14,.17-.25,.37-.33,.63-.09,.25-.13,.56-.13,.92v.74h1.74v-1.03c0-.17,.04-.32,.12-.45,.08-.14,.24-.21,.5-.21,.3,0,.5,.06,.57,.19,.08,.13,.12,.3,.12,.52,0,.17,.06,.29,.16,.36,.11,.08,.24,.13,.39,.15,.14,.02,.29,.03,.41,.03,.02,0,.05,0,.07,0,.31,0,.51-.08,.6-.21,.1-.14,.14-.31,.14-.5,0-.12,0-.25-.04-.38Z"/><path class="cls-2" d="M127.39,96.11c-.06-.06-.11-.12-.18-.2-.06-.08-.09-.18-.09-.29v-2.04c0-1.17-.29-2.08-.86-2.74-.57-.66-1.25-1.15-2.04-1.45,.53-.16,.99-.36,1.38-.6,.38-.25,.71-.53,.98-.82,.29-.31,.5-.63,.64-.93,.22-.45,.38-.88,.48-1.29,.1-.41,.14-.78,.14-1.09,0-.75-.1-1.41-.28-1.97-.18-.57-.41-1.06-.72-1.47-.29-.42-.63-.77-1.01-1.04-.37-.28-.76-.52-1.15-.71-.92-.44-1.97-.68-3.15-.74h-4.74c-.68,0-1.18,.14-1.48,.44-.3,.29-.49,.68-.57,1.17-.07,.49-.11,1.05-.11,1.66v12.57c.31-.18,.73-.33,1.31-.33,.4,0,.76,.06,1.07,.21,.35-.14,.73-.21,1.12-.21,.29,0,.57,.04,.84,.12v-3.66h1.61c.9,0,1.49,.26,1.77,.79,.29,.53,.43,1.23,.43,2.11v1.11c.19,.11,.37,.25,.53,.41,.33,.32,.6,.71,.79,1.18,.18,.45,.27,.96,.27,1.55v.86c.37,.15,.76,.22,1.16,.22,.6,0,1.12-.14,1.59-.43,.47-.28,.71-.74,.71-1.38,0-.12-.02-.26-.06-.41-.05-.17-.18-.37-.4-.59Zm-4.23-9.89c-.24,.41-.55,.71-.93,.91-.38,.21-.81,.33-1.29,.34h-1.95v-5.36h2.06c.48,.03,.89,.14,1.23,.32,.36,.17,.65,.44,.88,.81,.24,.37,.35,.85,.35,1.42,0,.64-.12,1.16-.36,1.56Zm-3.03,9.79c-.31,.13-.52,.33-.64,.58-.14-.24-.32-.42-.52-.53-.03-.02-.06-.04-.09-.06-.23-.13-.48-.18-.73-.18-.34,0-.63,.1-.87,.29-.23,.19-.39,.41-.46,.66,0-.15-.02-.3-.06-.45-.04-.15-.12-.27-.25-.37-.12-.1-.31-.14-.56-.14-.26,0-.45,.06-.58,.18-.1,.09-.17,.21-.21,.36h0s-.02,.07-.03,.1c-.03,.19-.06,.41-.06,.65v2.97c.1,.05,.21,.09,.32,.11,.41,.14,.88,.21,1.41,.21h0s0-.1,0-.16v-1.11c0-.11,0-.22,0-.33,0-.16,0-.31,.02-.45,.02-.25,.06-.45,.11-.63,.06-.18,.13-.32,.22-.41,.1-.1,.22-.15,.37-.15,.22,0,.36,.08,.41,.25,.06,.17,.09,.36,.09,.57v2.26c.54-.14,.99-.37,1.35-.72,.14-.14,.28-.29,.4-.46v-.39c.02-.26,.05-.51,.1-.74,.05-.22,.12-.41,.22-.56,.09-.13,.2-.19,.35-.2,.06-.41,.09-.84,.1-1.3-.15,.03-.3,.08-.45,.14Zm-6.38,1.06c-.06-.17-.14-.32-.23-.45-.04-.06-.08-.11-.13-.16-.08-.1-.18-.18-.27-.25-.02-.02-.02-.02-.04-.02,.02,.29,.03,.57,.06,.82,.02,.14,.03,.27,.05,.4,.06,.38,.15,.74,.3,1.07,.1,.23,.23,.45,.38,.64v-1.15c0-.35-.04-.64-.13-.89Zm8.91-.18c-.1-.25-.25-.46-.41-.62-.17-.16-.35-.28-.57-.34-.15-.06-.3-.09-.46-.09v.79c0,1.23,.56,2.29,1.56,2.99,0,0,.02,.02,.03,.02v-1.8c0-.38-.05-.7-.15-.96Z"/><path class="cls-2" d="M127.39,96.11c-.06-.06-.11-.12-.18-.2-.06-.08-.09-.18-.09-.29v-2.04c0-1.17-.29-2.08-.86-2.74-.57-.66-1.25-1.15-2.04-1.45,.53-.16,.99-.36,1.38-.6,.38-.25,.71-.53,.98-.82,.29-.31,.5-.63,.64-.93,.22-.45,.38-.88,.48-1.29,.1-.41,.14-.78,.14-1.09,0-.75-.1-1.41-.28-1.97-.18-.57-.41-1.06-.72-1.47-.29-.42-.63-.77-1.01-1.04-.37-.28-.76-.52-1.15-.71-.92-.44-1.97-.68-3.15-.74h-4.74c-.68,0-1.18,.14-1.48,.44-.3,.29-.49,.68-.57,1.17-.07,.49-.11,1.05-.11,1.66v12.57c.31-.18,.73-.33,1.31-.33,.4,0,.76,.06,1.07,.21,.35-.14,.73-.21,1.12-.21,.29,0,.57,.04,.84,.12v-3.66h1.61c.9,0,1.49,.26,1.77,.79,.29,.53,.43,1.23,.43,2.11v1.11c.19,.11,.37,.25,.53,.41,.33,.32,.6,.71,.79,1.18,.18,.45,.27,.96,.27,1.55v.86c.37,.15,.76,.22,1.16,.22,.6,0,1.12-.14,1.59-.43,.47-.28,.71-.74,.71-1.38,0-.12-.02-.26-.06-.41-.05-.17-.18-.37-.4-.59Zm-4.23-9.89c-.24,.41-.55,.71-.93,.91-.38,.21-.81,.33-1.29,.34h-1.95v-5.36h2.06c.48,.03,.89,.14,1.23,.32,.36,.17,.65,.44,.88,.81,.24,.37,.35,.85,.35,1.42,0,.64-.12,1.16-.36,1.56Zm-4.27,9.78c-.23-.13-.48-.18-.73-.18-.34,0-.63,.1-.87,.29-.23,.19-.39,.41-.46,.66,0-.15-.02-.3-.06-.45-.04-.15-.12-.27-.25-.37-.12-.1-.31-.14-.56-.14-.26,0-.45,.06-.58,.18-.1,.09-.17,.21-.21,.36h0s-.02,.07-.03,.1c-.03,.19-.06,.41-.06,.65v.96c.07,.11,.15,.21,.25,.3,.04,.04,.09,.08,.14,.11,.31,.22,.76,.33,1.35,.33h.02c0-.16,0-.31,.02-.45,.02-.25,.06-.45,.11-.63,.06-.18,.13-.32,.22-.41,.1-.1,.22-.15,.37-.15,.22,0,.36,.08,.41,.25,.06,.17,.09,.36,.09,.57v.57c.09-.05,.17-.11,.24-.18,.3-.29,.49-.68,.57-1.19,.06-.35,.09-.72,.1-1.12-.03-.02-.06-.04-.09-.06Z"/></g><g><path class="cls-1" d="M102.17,100.38c0,.06,.02,.14,.02,.21,0,.13-.02,.25-.05,.35-.03,.15-.1,.28-.2,.37-.17,.15-.4,.23-.69,.23-.64,0-.95-.32-.95-.95,0-.32,.07-.55,.23-.7l.02-.02c.16-.14,.4-.22,.7-.22,.26,0,.47,.06,.61,.15h0s.06,.05,.09,.07c.13,.12,.2,.29,.22,.51Z"/><path class="cls-1" d="M103.78,100.58v.04c-.06-.07-.1-.14-.14-.22,0,0,0-.02-.02-.02-.14-.27-.2-.59-.2-.97v-.21c.18,.29,.32,.69,.34,1.2,0,.06,0,.12,0,.18Z"/><path class="cls-1" d="M102.17,100.38c-.02-.22-.1-.39-.22-.51-.02-.02-.06-.05-.09-.06h0c-.14-.1-.35-.16-.61-.16-.3,0-.54,.08-.7,.22l-.02,.02c-.16,.15-.23,.38-.23,.7,0,.63,.31,.95,.95,.95,.29,0,.53-.08,.69-.23,.1-.09,.17-.21,.2-.37,.03-.1,.05-.22,.05-.35,0-.07,0-.14-.02-.21Z"/><path class="cls-1" d="M102.17,100.38c0,.06,.02,.14,.02,.21,0,.13-.02,.25-.05,.35-.09-.18-.15-.37-.2-.58-.04-.18-.07-.36-.08-.55,.03,.02,.06,.04,.09,.06,.13,.12,.2,.29,.22,.51Z"/><path class="cls-1" d="M108.26,99.7c0,.25-.04,.46-.11,.64,0,.02-.02,.04-.02,.06-.07,.16-.16,.31-.27,.42-.02,.02-.05,.05-.07,.06-.11,.11-.23,.21-.37,.28-.18,.1-.35,.17-.53,.21-.18,.06-.37,.1-.57,.12-.19,.02-.37,.03-.54,.03-.3,0-.6-.04-.88-.12-.29-.08-.53-.21-.75-.37-.15-.12-.28-.25-.38-.41-.06-.07-.1-.14-.14-.22,0,0,0-.02-.02-.02-.14-.27-.2-.59-.2-.97v-1.34c0-.36,.04-.66,.13-.92,.09-.25,.2-.46,.33-.63,.14-.17,.29-.3,.46-.4,.18-.09,.34-.16,.52-.2,.18-.05,.34-.08,.5-.09,.16-.02,.29-.02,.41-.02,.33,0,.63,.02,.88,.08,.25,.06,.47,.14,.66,.23,.18,.1,.33,.21,.45,.33,.11,.12,.21,.25,.28,.4,.06,.14,.11,.27,.14,.41,.03,.14,.04,.26,.04,.38,0,.19-.04,.36-.14,.5-.09,.14-.29,.21-.6,.21-.02,0-.05,0-.07,0-.13,0-.27-.02-.41-.03-.15-.02-.28-.07-.39-.15-.1-.07-.16-.19-.16-.36,0-.21-.04-.39-.12-.52-.07-.13-.27-.19-.57-.19-.26,0-.42,.07-.5,.21-.08,.14-.12,.29-.12,.45v1.77c0,.11,.02,.23,.05,.36,.03,.14,.1,.25,.18,.33,.09,.1,.21,.14,.39,.14,.3,0,.5-.06,.58-.19,.08-.13,.12-.31,.12-.54,0-.16,.07-.29,.21-.39,.14-.1,.39-.15,.76-.15h.06c.3,0,.51,.07,.6,.18,.1,.11,.15,.25,.15,.4Z"/><path class="cls-1" d="M109.85,99.7c0,.21-.02,.41-.05,.6-.03,.21-.09,.42-.16,.6,0,0-.02,0-.02-.02-.14-.14-.25-.32-.33-.53-.02-.02-.02-.06-.04-.09-.1-.24-.14-.54-.14-.89v-1.42c0-.35,.05-.64,.14-.89,.1-.24,.21-.45,.37-.6h0c.06,.15,.11,.31,.14,.47,.05,.25,.07,.49,.07,.71,0,.37-.07,.73-.22,1.06,0,0,0,0,0,0,.15,.3,.23,.64,.23,.99Z"/><path class="cls-1" d="M108.11,99.3c-.09-.11-.29-.18-.6-.18h-.06c-.37,0-.62,.06-.76,.15-.14,.1-.21,.23-.21,.39,0,.23-.04,.41-.12,.54-.08,.13-.28,.19-.58,.19-.18,0-.3-.05-.39-.14-.09-.09-.15-.2-.18-.33-.03-.13-.05-.25-.05-.36v-1.77c0-.17,.04-.32,.12-.45,.08-.14,.24-.21,.5-.21,.3,0,.5,.06,.57,.19,.08,.13,.12,.3,.12,.52,0,.17,.06,.29,.16,.36,.11,.08,.24,.13,.39,.15,.14,.02,.29,.03,.41,.03,.02,0,.05,0,.07,0,.31,0,.51-.08,.6-.21,.1-.14,.14-.31,.14-.5,0-.12,0-.25-.04-.38-.03-.14-.08-.27-.14-.41-.07-.14-.17-.28-.28-.4-.12-.12-.27-.23-.45-.33-.19-.1-.41-.17-.66-.23-.25-.06-.55-.08-.88-.08-.12,0-.25,0-.41,.02-.16,0-.33,.04-.5,.09-.18,.04-.34,.11-.52,.2-.17,.1-.33,.23-.46,.4-.14,.17-.25,.37-.33,.63-.09,.25-.13,.56-.13,.92v1.34c0,.38,.06,.7,.2,.97,0,0,0,.02,.02,.02,.04,.08,.08,.15,.14,.22,.1,.16,.23,.29,.38,.41,.21,.17,.46,.29,.75,.37,.28,.08,.57,.12,.88,.12,.17,0,.35,0,.54-.03,.19-.02,.38-.06,.57-.12,.18-.05,.35-.12,.53-.21,.14-.07,.25-.17,.37-.28,.02-.02,.05-.04,.07-.06,.11-.11,.2-.26,.27-.42,0-.02,.02-.04,.02-.06,.07-.18,.11-.39,.11-.64,0-.15-.05-.29-.15-.4Z"/><path class="cls-1" d="M108.11,98.15c-.09,.14-.29,.21-.6,.21v-.4c0-.56,.09-1.04,.25-1.47,0,0,0-.02,.02-.03,.11,.12,.21,.25,.28,.4,.06,.14,.11,.27,.14,.41,.03,.14,.04,.26,.04,.38,0,.19-.04,.36-.14,.5Z"/><path class="cls-1" d="M108.11,99.3c.1,.11,.15,.25,.15,.4,0,.25-.04,.46-.11,.64,0,.02-.02,.04-.02,.06-.07,.16-.16,.31-.27,.42-.02,.02-.05,.05-.07,.06,0,0,0-.02-.02-.03-.06-.14-.1-.29-.14-.45-.08-.31-.12-.65-.12-1.02v-.26c.3,0,.51,.07,.6,.18Z"/><path class="cls-1" d="M113.74,97.07c-.06-.17-.14-.32-.23-.45-.04-.06-.08-.11-.13-.16-.08-.1-.18-.18-.27-.25-.02-.02-.02-.02-.04-.02-.06-.05-.11-.08-.17-.1-.18-.1-.35-.16-.53-.21-.18-.05-.33-.08-.49-.09-.15,0-.27-.02-.36-.02-.05,0-.1,0-.16,0-.06,0-.13,0-.2,0-.16,0-.33,.04-.5,.09-.18,.05-.37,.11-.54,.21-.19,.09-.35,.21-.5,.37h0c-.15,.17-.27,.37-.37,.61-.1,.25-.14,.54-.14,.89v1.42c0,.35,.05,.65,.14,.89,.02,.03,.02,.06,.04,.09,.09,.21,.2,.38,.33,.53,0,0,.02,.02,.02,.02h0c.14,.17,.29,.29,.48,.37,.18,.1,.37,.16,.54,.21,.18,.05,.35,.07,.5,.09,.16,0,.28,.02,.36,.02,.09,0,.21,0,.36-.02,.16-.02,.32-.04,.49-.09,.18-.05,.35-.11,.53-.21,.18-.09,.34-.21,.48-.38,.05-.06,.09-.11,.13-.17,.09-.13,.16-.28,.22-.45,.1-.25,.14-.54,.14-.89v-1.42c0-.35-.04-.64-.13-.89Zm-1.57,2.71c0,.1-.03,.2-.08,.29-.05,.08-.11,.14-.2,.21-.08,.06-.21,.09-.37,.09-.17,0-.29-.03-.38-.09-.09-.06-.16-.13-.2-.21,0,0,0-.02,0-.03h0c-.04-.07-.06-.16-.06-.25v-2.07c0-.12,.03-.23,.08-.32,.04-.07,.11-.14,.2-.21,.09-.06,.21-.1,.38-.1s.29,.03,.37,.1c.09,.07,.15,.14,.2,.21,.05,.1,.07,.21,.08,.32v2.07Z"/><path class="cls-1" d="M115.46,97.97v1.42c0,.29-.02,.56-.06,.81-.04,.22-.1,.43-.17,.63-.02,.06-.04,.1-.06,.15,0-.02-.02-.06-.02-.09-.04-.2-.06-.41-.06-.64v-3.13c0-.24,.02-.46,.06-.65,0-.03,.02-.06,.03-.1,.02,.05,.04,.1,.06,.16,.16,.43,.23,.9,.23,1.44Z"/><path class="cls-1" d="M113.74,97.07c-.06-.17-.14-.32-.23-.45-.04-.06-.08-.11-.13-.16-.08-.1-.18-.18-.27-.25-.02-.02-.02-.02-.04-.02-.06-.05-.11-.08-.17-.1-.18-.1-.35-.16-.53-.21-.18-.05-.33-.08-.49-.09-.15,0-.27-.02-.36-.02-.05,0-.1,0-.16,0-.06,0-.13,0-.2,0-.16,0-.33,.04-.5,.09-.18,.05-.37,.11-.54,.21-.19,.09-.35,.21-.5,.37h0c-.15,.17-.27,.37-.37,.61-.1,.25-.14,.54-.14,.89v1.42c0,.35,.05,.65,.14,.89,.02,.03,.02,.06,.04,.09,.09,.21,.2,.38,.33,.53,0,0,.02,.02,.02,.02h0c.14,.17,.29,.29,.48,.37,.18,.1,.37,.16,.54,.21,.18,.05,.35,.07,.5,.09,.16,0,.28,.02,.36,.02,.09,0,.21,0,.36-.02,.16-.02,.32-.04,.49-.09,.18-.05,.35-.11,.53-.21,.18-.09,.34-.21,.48-.38,.05-.06,.09-.11,.13-.17,.09-.13,.16-.28,.22-.45,.1-.25,.14-.54,.14-.89v-1.42c0-.35-.04-.64-.13-.89Zm-1.57,2.71c0,.1-.03,.2-.08,.29-.05,.08-.11,.14-.2,.21-.08,.06-.21,.09-.37,.09-.17,0-.29-.03-.38-.09-.09-.06-.16-.13-.2-.21,0,0,0-.02,0-.03h0c-.04-.07-.06-.16-.06-.25v-2.07c0-.12,.03-.23,.08-.32,.04-.07,.11-.14,.2-.21,.09-.06,.21-.1,.38-.1s.29,.03,.37,.1c.09,.07,.15,.14,.2,.21,.05,.1,.07,.21,.08,.32v2.07Z"/><path class="cls-1" d="M113.74,97.07c.09,.25,.13,.54,.13,.89v1.42c0,.35-.04,.64-.14,.89-.06,.17-.14,.32-.22,.45-.02-.16-.02-.32-.02-.48v-3.13c0-.17,0-.33,.02-.49,.09,.13,.17,.28,.23,.45Z"/><path class="cls-1" d="M122.79,97.85v2.4c0,.23-.02,.45-.06,.64-.04,.19-.13,.35-.25,.47-.13,.12-.31,.18-.56,.18s-.44-.06-.57-.18c-.13-.12-.21-.28-.25-.47-.04-.2-.06-.41-.06-.64v-2.26c0-.22-.02-.41-.09-.58-.06-.16-.2-.24-.42-.24-.02,0-.04,0-.06,0-.15,0-.26,.07-.35,.2-.1,.14-.18,.33-.22,.56-.05,.23-.08,.48-.1,.74v1.58c0,.23-.02,.45-.06,.64-.05,.19-.13,.35-.25,.47-.12,.12-.31,.18-.57,.18s-.44-.06-.56-.18c-.13-.12-.21-.28-.25-.47-.05-.2-.06-.41-.06-.64v-2.26c0-.21-.03-.41-.09-.57-.06-.17-.19-.25-.41-.25-.15,0-.28,.05-.37,.15-.1,.1-.17,.24-.22,.41-.06,.18-.1,.38-.11,.63-.02,.14-.02,.29-.02,.45,0,.1,0,.21,0,.33v1.11c0,.06,0,.11,0,.16,0,.18-.02,.33-.06,.49-.04,.19-.12,.35-.25,.47-.12,.12-.31,.18-.56,.18s-.45-.06-.57-.18c-.1-.1-.18-.23-.22-.38,0-.02-.02-.06-.02-.09-.04-.2-.06-.41-.06-.64v-3.13c0-.24,.02-.46,.06-.65,0-.03,.02-.06,.03-.1h0c.04-.15,.11-.28,.21-.37,.13-.12,.32-.18,.58-.18,.25,0,.44,.05,.56,.14,.13,.1,.21,.21,.25,.37,.04,.14,.06,.29,.06,.45,.07-.25,.23-.47,.46-.66,.24-.2,.53-.29,.87-.29,.25,0,.5,.06,.73,.18,.03,.02,.06,.03,.09,.06,.2,.11,.37,.29,.52,.53,.12-.25,.33-.45,.64-.58,.14-.06,.29-.11,.45-.14,.15-.03,.31-.05,.47-.05,.06,0,.11,0,.17,.02,.16,0,.31,.03,.46,.09,.21,.06,.4,.18,.57,.34,.17,.16,.31,.37,.41,.62s.15,.57,.15,.96Z"/><path class="cls-1" d="M122.64,96.89c-.1-.25-.25-.46-.41-.62-.17-.16-.35-.28-.57-.34-.15-.06-.3-.09-.46-.09-.06-.02-.11-.02-.17-.02-.16,0-.32,.02-.47,.05-.15,.03-.3,.08-.45,.14-.31,.13-.52,.33-.64,.58-.14-.24-.32-.42-.52-.53-.03-.02-.06-.04-.09-.06-.23-.13-.48-.18-.73-.18-.34,0-.63,.1-.87,.29-.23,.19-.39,.41-.46,.66,0-.15-.02-.3-.06-.45-.04-.15-.12-.27-.25-.37-.12-.1-.31-.14-.56-.14-.26,0-.45,.06-.58,.18-.1,.09-.17,.21-.21,.36h0s-.02,.07-.03,.1c-.03,.19-.06,.41-.06,.65v3.13c0,.23,.02,.45,.06,.64,0,.03,.02,.06,.02,.09,.04,.15,.12,.28,.22,.38,.12,.12,.31,.18,.57,.18s.44-.06,.56-.18c.13-.12,.21-.28,.25-.47,.03-.15,.05-.31,.06-.49,0-.05,0-.1,0-.16v-1.11c0-.11,0-.22,0-.33,0-.16,0-.31,.02-.45,.02-.25,.06-.45,.11-.63,.06-.18,.13-.32,.22-.41,.1-.1,.22-.15,.37-.15,.22,0,.36,.08,.41,.25,.06,.17,.09,.36,.09,.57v2.26c0,.23,.02,.45,.06,.64,.04,.19,.12,.35,.25,.47,.12,.12,.31,.18,.56,.18s.45-.06,.57-.18c.13-.12,.21-.28,.25-.47,.04-.2,.06-.41,.06-.64v-1.58c.02-.26,.05-.51,.1-.74,.05-.22,.12-.41,.22-.56,.09-.13,.2-.19,.35-.2,.02,0,.04,0,.06,0,.22,0,.36,.08,.42,.24,.06,.17,.09,.36,.09,.58v2.26c0,.23,.02,.45,.06,.64,.05,.19,.13,.35,.25,.47,.13,.12,.31,.18,.57,.18s.43-.06,.56-.18c.13-.12,.21-.28,.25-.47,.05-.2,.06-.41,.06-.64v-2.4c0-.38-.05-.7-.15-.96Z"/></g></svg>